<?xml version="1.0" encoding="utf-8"?>
<!-- Generator: Adobe Illustrator 20.1.0, SVG Export Plug-In . SVG Version: 6.00 Build 0)  -->
<svg version="1.1" id="Layer_1" xmlns="http://www.w3.org/2000/svg" xmlns:xlink="http://www.w3.org/1999/xlink" x="0px" y="0px"
	 viewBox="0 0 240.9 109.6" style="enable-background:new 0 0 240.9 109.6;" xml:space="preserve">
<style type="text/css">
	.st0{fill:#FFFFFF;}
</style>
<g>
	<path d="M0,90.7V70.8c0-13.4,5.6-20,16.7-20c2.3,0,4.4,0.3,6.3,0.9c1.8,0.6,3.4,1.5,4.6,2.6c1.2,1.1,2.3,2.4,3,4
		c0.8,1.6,1.4,3.3,1.7,5.2c0.4,1.9,0.5,3.9,0.5,6.2v3.3H21.9v-4c0-1,0-1.8-0.1-2.6c-0.1-0.7-0.2-1.6-0.4-2.5
		c-0.2-0.9-0.5-1.7-0.8-2.2c-0.4-0.6-0.9-1.1-1.5-1.5c-0.7-0.4-1.5-0.6-2.4-0.6c-3.5,0-5.2,2.8-5.2,8.4v24.4c0,5.6,1.7,8.3,5.2,8.3
		c3.5,0,5.2-2.9,5.2-8.6v-4.5h-6.5v-8.2h17.9v29.1h-7.9l-1.4-4c-1,1.5-2.3,2.7-4.1,3.7c-1.8,0.9-3.6,1.4-5.5,1.4
		c-2,0-3.9-0.4-5.5-1.1c-1.7-0.7-3-1.7-4.1-3c-1.1-1.2-2-2.7-2.7-4.3c-0.7-1.7-1.3-3.3-1.6-5.1S0,92.5,0,90.7z"/>
	<path d="M39.6,108.4V51.8h12.4c2.8,0,5.3,0.3,7.5,0.8c2.1,0.5,4,1.4,5.6,2.5c1.6,1.1,2.8,2.7,3.7,4.6c0.8,1.9,1.3,4.3,1.3,7
		c0,1.2,0,2.2-0.1,3.1c-0.1,0.9-0.3,2-0.6,3.2c-0.3,1.2-0.7,2.2-1.2,3.1c-0.5,0.9-1.3,1.8-2.3,2.7c-1,0.9-2.1,1.6-3.5,2.2
		c3.4,10.8,6.3,19.9,8.9,27.3H59.4l-6.5-26h-1.9v26H39.6z M51.1,75.4h3.3c0.9,0,1.6-0.3,2.3-0.9c0.6-0.6,1.1-1.3,1.4-2.2
		c0.3-0.9,0.5-1.7,0.6-2.5c0.1-0.8,0.2-1.5,0.2-2.1c0-0.7,0-1.4-0.1-2.1s-0.3-1.5-0.5-2.4c-0.2-0.9-0.6-1.6-1.2-2.1
		c-0.6-0.6-1.2-0.8-2-0.8h-3.8V75.4z"/>
	<path d="M71.8,108.4L84,51.8h10.1l12.2,56.6H95.1l-2.3-12.1h-7.4l-2.2,12.1H71.8z M86.1,89.3H92l-2.9-21L86.1,89.3z"/>
	<path d="M110,108.4V51.8h11.7c2.1,0,3.9,0.1,5.5,0.3c1.6,0.2,3.2,0.6,4.7,1.3c1.5,0.6,2.8,1.5,3.8,2.6c1,1.1,1.8,2.5,2.4,4.2
		c0.6,1.7,0.9,3.8,0.9,6.2c0,3-0.7,5.3-2.1,7c-1.4,1.7-3.6,3-6.5,4c6.7,1.6,10.1,6.4,10.1,14.3c0,5.7-1.4,9.9-4.1,12.6
		s-6.9,4.1-12.5,4.1H110z M121.3,74.1h1.9c1,0,1.9-0.2,2.6-0.6c0.7-0.4,1.3-1,1.6-1.7c0.4-0.8,0.6-1.6,0.8-2.5
		c0.1-0.9,0.2-1.9,0.2-3.1c0-0.9-0.1-1.8-0.2-2.5c-0.1-0.7-0.3-1.3-0.5-1.8c-0.2-0.5-0.5-0.9-0.8-1.2c-0.4-0.3-0.7-0.6-1.1-0.7
		s-0.8-0.3-1.4-0.3c-0.6-0.1-1.1-0.1-1.5-0.1s-1,0-1.8,0V74.1z M121.4,100.3h1.1c1.5,0,2.7-0.2,3.6-0.5c0.9-0.3,1.6-0.9,2.1-1.8
		c0.5-0.8,0.8-1.8,1-2.8c0.2-1.1,0.2-2.5,0.2-4.3c0-3-0.5-5.2-1.6-6.9c-1-1.6-2.8-2.5-5.3-2.5h-1.1V100.3z"/>
	<path d="M145.8,108.4V51.8h11.7c2.1,0,3.9,0.1,5.5,0.3c1.6,0.2,3.2,0.6,4.7,1.3c1.5,0.6,2.8,1.5,3.8,2.6c1,1.1,1.8,2.5,2.4,4.2
		c0.6,1.7,0.9,3.8,0.9,6.2c0,3-0.7,5.3-2.1,7c-1.4,1.7-3.6,3-6.5,4c6.7,1.6,10.1,6.4,10.1,14.3c0,5.7-1.4,9.9-4.1,12.6
		c-2.7,2.7-6.9,4.1-12.5,4.1H145.8z M157.2,74.1h1.9c1,0,1.9-0.2,2.6-0.6c0.7-0.4,1.3-1,1.6-1.7c0.4-0.8,0.6-1.6,0.8-2.5
		c0.1-0.9,0.2-1.9,0.2-3.1c0-0.9-0.1-1.8-0.2-2.5c-0.1-0.7-0.3-1.3-0.5-1.8c-0.2-0.5-0.5-0.9-0.8-1.2c-0.4-0.3-0.7-0.6-1.1-0.7
		s-0.8-0.3-1.4-0.3c-0.6-0.1-1.1-0.1-1.5-0.1s-1,0-1.8,0V74.1z M157.2,100.3h1.1c1.5,0,2.7-0.2,3.6-0.5c0.9-0.3,1.6-0.9,2.1-1.8
		s0.8-1.8,1-2.8c0.2-1.1,0.2-2.5,0.2-4.3c0-3-0.5-5.2-1.6-6.9s-2.8-2.5-5.3-2.5h-1.1V100.3z"/>
	<path d="M181.6,108.4V51.8h23.6v7.9h-12.2v15.4h8.6v8h-8.6v17.4h12.2v7.9H181.6z"/>
	<path d="M209.3,108.4V51.8h12.4c2.8,0,5.3,0.3,7.5,0.8c2.1,0.5,4,1.4,5.6,2.5c1.6,1.1,2.8,2.7,3.7,4.6c0.8,1.9,1.3,4.3,1.3,7
		c0,1.2,0,2.2-0.1,3.1c-0.1,0.9-0.3,2-0.6,3.2c-0.3,1.2-0.7,2.2-1.2,3.1c-0.5,0.9-1.3,1.8-2.3,2.7c-1,0.9-2.1,1.6-3.5,2.2
		c3.4,10.8,6.3,19.9,8.9,27.3h-11.8l-6.5-26h-1.9v26H209.3z M220.7,75.4h3.3c0.9,0,1.6-0.3,2.3-0.9c0.6-0.6,1.1-1.3,1.4-2.2
		s0.5-1.7,0.6-2.5c0.1-0.8,0.2-1.5,0.2-2.1c0-0.7,0-1.4-0.1-2.1s-0.3-1.5-0.5-2.4c-0.2-0.9-0.6-1.6-1.2-2.1c-0.6-0.6-1.2-0.8-2-0.8
		h-3.8V75.4z"/>
</g>
<path class="st0" d="M163.6,40.6H77.4l5.1-35.6c0-2.7,2.2-4.9,4.9-4.9h66.2c2.7,0,4.9,2.2,4.9,4.9L163.6,40.6z"/>
<g>
	<path d="M100.3,32.5V12h-3.6V8.3h11.9V12h-3.5v20.6H100.3z"/>
	<path d="M108.4,32.5l5.2-24.2h4.3l5.2,24.2h-4.8l-1-5.2h-3.2l-0.9,5.2H108.4z M114.6,24.3h2.5l-1.2-9L114.6,24.3z"/>
	<path d="M123.6,32.5l3.9-12.5l-3.9-11.7h4.7l2.3,7.2l2.5-7.2h4.6l-3.9,11.6l3.9,12.6h-4.6l-2.3-8l-2.3,8H123.6z"/>
	<path d="M139.3,32.5V8.3h4.9v24.2H139.3z"/>
</g>
</svg>
